<svg xmlns="http://www.w3.org/2000/svg" xmlns:xlink="http://www.w3.org/1999/xlink" width="500" zoomAndPan="magnify" viewBox="0 0 375 374.999991" height="500" preserveAspectRatio="xMidYMid meet" version="1.0"><defs><clipPath id="9b146eee44"><path d="M 34 172 L 341 172 L 341 350.351562 L 34 350.351562 Z M 34 172 " clip-rule="nonzero"/></clipPath><clipPath id="18797d674d"><path d="M 124 24.851562 L 251 24.851562 L 251 168 L 124 168 Z M 124 24.851562 " clip-rule="nonzero"/></clipPath></defs><g clip-path="url(#9b146eee44)"><path fill="#21fa90" d="M 340.046875 294.5625 L 310.265625 193.050781 C 309.425781 190.132812 306.453125 188.453125 303.480469 189.179688 L 266.296875 198.601562 C 264.839844 198.996094 263.550781 199.949219 262.820312 201.238281 C 262.089844 202.527344 261.867188 204.15625 262.316406 205.613281 L 263.269531 208.921875 C 253.621094 208.53125 244.089844 206.175781 235.507812 201.855469 L 210.550781 189.238281 C 200.621094 184.246094 189.238281 183.125 178.46875 185.984375 L 158.617188 191.3125 L 110.214844 193.332031 L 111.222656 190.191406 C 111.671875 188.730469 111.503906 187.160156 110.777344 185.816406 C 110.046875 184.46875 108.8125 183.515625 107.296875 183.066406 L 70.339844 172.972656 C 67.421875 172.1875 64.449219 173.8125 63.496094 176.671875 L 34.332031 269.101562 C 33.882812 270.558594 34.050781 272.128906 34.78125 273.476562 C 35.511719 274.820312 36.746094 275.773438 38.257812 276.222656 L 75.21875 286.320312 C 75.722656 286.429688 76.226562 286.542969 76.675781 286.542969 C 79.085938 286.542969 81.273438 285.027344 82.003906 282.617188 L 82.003906 282.5625 L 95.296875 299.667969 C 105.167969 312.511719 117.167969 323.613281 131.023438 332.699219 L 152.109375 346.496094 C 155.8125 348.910156 160.074219 350.085938 164.28125 350.085938 C 169.269531 350.085938 174.207031 348.460938 178.1875 345.207031 C 181.554688 342.457031 183.910156 338.8125 184.976562 334.773438 C 188.734375 337.859375 193.277344 339.375 197.875 339.375 C 203.203125 339.375 208.53125 337.300781 212.398438 333.203125 C 214.363281 331.128906 215.710938 328.71875 216.550781 326.136719 C 220.027344 328.269531 223.953125 329.335938 227.878906 329.335938 C 233.542969 329.335938 239.152344 327.148438 243.304688 322.886719 C 245.882812 320.195312 247.566406 316.773438 248.292969 313.183594 C 256.371094 316.941406 266.296875 315.3125 272.523438 308.585938 C 274.375 306.566406 275.71875 304.265625 276.5625 301.796875 L 289.851562 299.554688 L 292.039062 307.011719 C 292.769531 309.425781 295.011719 311.050781 297.425781 311.050781 C 297.871094 311.050781 298.320312 310.996094 298.828125 310.882812 L 336.011719 301.460938 C 337.46875 301.070312 338.757812 300.117188 339.488281 298.824219 C 340.214844 297.535156 340.441406 296.019531 340.046875 294.5625 Z M 46.894531 267.027344 L 72.695312 185.3125 L 98.828125 192.433594 L 97.203125 197.535156 C 97.203125 197.535156 97.203125 197.59375 97.203125 197.59375 L 74.65625 269.042969 L 73.03125 274.148438 Z M 264.277344 301.070312 C 260.96875 304.65625 254.914062 305.050781 251.042969 301.964844 L 227.152344 283.066406 C 224.738281 281.160156 221.207031 281.550781 219.296875 283.964844 C 217.390625 286.375 217.785156 289.90625 220.195312 291.816406 L 234.160156 302.863281 C 236.125 304.433594 237.300781 306.621094 237.46875 309.03125 C 237.636719 311.332031 236.796875 313.519531 235.226562 315.144531 C 231.582031 318.902344 225.074219 319.183594 221.09375 315.652344 L 198.042969 295.347656 C 195.742188 293.328125 192.152344 293.554688 190.136719 295.851562 C 188.058594 298.152344 188.285156 301.742188 190.640625 303.761719 L 203.820312 315.371094 C 205.332031 316.714844 206.230469 318.453125 206.285156 320.363281 C 206.34375 322.210938 205.671875 324.007812 204.269531 325.464844 C 201.183594 328.71875 195.574219 329 192.097656 326.136719 L 168.039062 305.949219 C 162.035156 301.6875 155.585938 309.371094 160.859375 314.585938 L 171.90625 323.894531 C 173.535156 325.578125 174.429688 327.597656 174.429688 329.839844 C 174.429688 332.417969 173.253906 334.777344 171.066406 336.515625 C 167.476562 339.429688 162.035156 339.65625 158.167969 337.132812 L 137.136719 323.335938 C 124.347656 314.921875 113.242188 304.65625 104.15625 292.824219 L 86.210938 269.605469 L 88.957031 260.800781 L 106.679688 204.714844 L 148.296875 202.976562 L 128.328125 230.964844 C 122.328125 239.375 123.957031 250.648438 132.199219 257.210938 C 140.613281 263.941406 153.175781 263.269531 160.800781 255.695312 L 169.777344 246.722656 C 173.757812 242.742188 179.199219 240.050781 185.03125 239.152344 C 192.714844 238.03125 200.566406 240.050781 206.511719 244.761719 L 263.324219 289.796875 C 265.121094 291.253906 266.242188 293.21875 266.351562 295.347656 C 266.523438 297.421875 265.792969 299.441406 264.277344 301.070312 Z M 276.785156 290.523438 C 275.664062 286.824219 273.421875 283.570312 270.28125 281.046875 L 213.464844 236.011719 C 205.109375 229.394531 194.117188 226.53125 183.347656 228.101562 C 175.160156 229.335938 167.476562 233.152344 161.8125 238.816406 L 152.839844 247.789062 C 149.304688 251.320312 143.191406 251.660156 139.152344 248.460938 C 135.621094 245.65625 134.890625 241.058594 137.414062 237.46875 L 162.878906 201.800781 L 181.386719 196.808594 C 189.460938 194.621094 198.042969 195.460938 205.5 199.21875 L 230.460938 211.839844 C 241.453125 217.390625 253.679688 220.25 266.128906 220.25 C 266.296875 220.25 266.464844 220.25 266.632812 220.25 L 286.710938 288.785156 Z M 301.351562 298.824219 L 299.273438 291.757812 L 276.167969 212.960938 C 276.167969 212.960938 276.167969 212.960938 276.167969 212.902344 L 274.765625 208.023438 L 301.070312 201.351562 L 327.652344 292.09375 Z M 301.351562 298.824219 " fill-opacity="1" fill-rule="nonzero"/></g><g clip-path="url(#18797d674d)"><path fill="#21fa90" d="M 125.863281 140.105469 C 141.453125 157.550781 163.773438 167.53125 187.21875 167.53125 C 210.773438 167.53125 233.261719 157.4375 248.855469 139.828125 C 249.246094 139.378906 249.585938 138.871094 249.808594 138.367188 C 250.3125 137.246094 250.425781 135.957031 250.144531 134.777344 C 244.875 113.074219 229.167969 96.25 209.089844 89.125 C 217.617188 82.5625 223.113281 72.300781 223.113281 60.746094 C 223.054688 40.949219 207.015625 24.851562 187.21875 24.851562 C 167.421875 24.851562 151.378906 40.949219 151.378906 60.691406 C 151.378906 72.246094 156.875 82.507812 165.402344 89.070312 C 145.492188 96.191406 129.84375 112.792969 124.460938 134.21875 C 124.066406 135.394531 124.066406 136.742188 124.515625 137.917969 C 124.796875 138.761719 125.246094 139.488281 125.863281 140.105469 Z M 162.597656 60.691406 C 162.597656 47.117188 173.644531 36.070312 187.21875 36.070312 C 200.789062 36.070312 211.839844 47.117188 211.839844 60.691406 C 211.839844 74.265625 200.847656 85.257812 187.273438 85.3125 C 187.21875 85.3125 187.21875 85.3125 187.164062 85.3125 C 187.105469 85.3125 187.105469 85.3125 187.050781 85.3125 C 173.589844 85.257812 162.597656 74.265625 162.597656 60.691406 Z M 187.050781 96.527344 C 187.105469 96.527344 187.164062 96.527344 187.21875 96.527344 C 187.273438 96.527344 187.332031 96.527344 187.386719 96.527344 C 211.109375 96.585938 231.691406 112.066406 238.421875 134.554688 C 225.074219 148.40625 206.566406 156.257812 187.21875 156.257812 C 167.871094 156.257812 149.363281 148.351562 136.011719 134.5 C 142.800781 112.066406 163.382812 96.640625 187.050781 96.527344 Z M 187.050781 96.527344 " fill-opacity="1" fill-rule="nonzero"/></g></svg>