<svg xmlns="http://www.w3.org/2000/svg" xmlns:xlink="http://www.w3.org/1999/xlink" width="500" zoomAndPan="magnify" viewBox="0 0 375 374.999991" height="500" preserveAspectRatio="xMidYMid meet" version="1.0"><defs><clipPath id="bef62ec71c"><path d="M 7.101562 43.179688 L 368.601562 43.179688 L 368.601562 332.679688 L 7.101562 332.679688 Z M 7.101562 43.179688 " clip-rule="nonzero"/></clipPath></defs><path fill="#21fa90" d="M 41.285156 221.441406 C 33.605469 221.441406 27.355469 227.691406 27.355469 235.371094 C 27.355469 243.046875 33.605469 249.304688 41.285156 249.304688 C 48.964844 249.304688 55.21875 243.050781 55.21875 235.371094 C 55.21875 227.6875 48.96875 221.441406 41.285156 221.441406 Z M 41.285156 241.285156 C 38.027344 241.285156 35.371094 238.632812 35.371094 235.367188 C 35.371094 232.101562 38.023438 229.449219 41.285156 229.449219 C 44.546875 229.449219 47.203125 232.105469 47.203125 235.367188 C 47.203125 238.628906 44.550781 241.285156 41.285156 241.285156 Z M 41.285156 241.285156 " fill-opacity="1" fill-rule="nonzero"/><g clip-path="url(#bef62ec71c)"><path fill="#21fa90" d="M 346.777344 179.925781 L 346.777344 57.609375 C 346.777344 49.785156 340.414062 43.421875 332.589844 43.421875 L 21.289062 43.421875 C 13.464844 43.421875 7.101562 49.785156 7.101562 57.609375 L 7.101562 246.921875 C 7.101562 254.765625 13.464844 261.148438 21.289062 261.148438 L 136.636719 261.148438 L 136.636719 295.503906 L 134.84375 295.503906 C 124.632812 295.503906 116.328125 303.804688 116.328125 314.011719 C 116.328125 324.21875 124.632812 332.527344 134.84375 332.527344 L 219.058594 332.527344 C 229.265625 332.527344 237.570312 324.222656 237.570312 314.011719 C 237.570312 303.800781 229.265625 295.503906 219.058594 295.503906 L 217.261719 295.503906 L 217.261719 261.148438 L 241.054688 261.148438 C 252.429688 282.589844 274.960938 297.246094 300.882812 297.246094 C 338.207031 297.246094 368.582031 266.875 368.582031 229.546875 C 368.582031 209.9375 360.148438 192.300781 346.785156 179.925781 Z M 15.117188 57.609375 C 15.117188 54.203125 17.882812 51.4375 21.289062 51.4375 L 332.589844 51.4375 C 335.996094 51.4375 338.761719 54.203125 338.761719 57.609375 L 338.761719 173.46875 C 336.980469 172.257812 335.132812 171.136719 333.230469 170.101562 L 333.230469 70.351562 C 333.230469 62.996094 327.246094 57.007812 319.886719 57.007812 L 34.03125 57.007812 C 26.648438 57.007812 20.648438 62.996094 20.648438 70.351562 L 20.648438 209.613281 L 15.117188 209.613281 Z M 219.058594 303.515625 C 224.84375 303.515625 229.554688 308.226562 229.554688 314.011719 C 229.554688 319.800781 224.84375 324.511719 219.058594 324.511719 L 134.84375 324.511719 C 129.058594 324.511719 124.34375 319.800781 124.34375 314.011719 C 124.34375 308.226562 129.058594 303.515625 134.84375 303.515625 Z M 144.65625 295.503906 L 144.65625 261.148438 L 209.246094 261.148438 L 209.246094 295.503906 Z M 213.335938 253.136719 C 213.308594 253.136719 213.28125 253.117188 213.257812 253.117188 L 140.652344 253.117188 C 140.625 253.117188 140.597656 253.136719 140.574219 253.136719 L 21.289062 253.136719 C 17.882812 253.136719 15.117188 250.351562 15.117188 246.921875 L 15.117188 217.628906 L 234.292969 217.628906 C 233.601562 221.503906 233.175781 225.476562 233.175781 229.546875 C 233.175781 237.851562 234.75 245.777344 237.5 253.136719 L 213.332031 253.136719 Z M 236.1875 209.617188 L 28.660156 209.617188 L 28.660156 70.351562 C 28.660156 67.414062 31.070312 65.023438 34.03125 65.023438 L 319.886719 65.023438 C 322.824219 65.023438 325.214844 67.414062 325.214844 70.351562 L 325.214844 166.445312 C 317.652344 163.515625 309.464844 161.84375 300.878906 161.84375 C 270.480469 161.84375 244.710938 181.980469 236.183594 209.613281 Z M 300.882812 169.863281 C 333.792969 169.863281 360.566406 196.640625 360.566406 229.550781 C 360.566406 241.917969 356.785156 253.414062 350.316406 262.957031 C 344.390625 246.722656 328.941406 235.585938 311.039062 235.585938 L 290.71875 235.585938 C 272.835938 235.585938 257.371094 246.734375 251.464844 262.972656 C 244.992188 253.433594 241.203125 241.925781 241.203125 229.550781 C 241.203125 196.640625 267.980469 169.863281 300.890625 169.863281 Z M 300.882812 289.230469 C 283.871094 289.230469 268.535156 282.039062 257.652344 270.578125 C 260.835938 254.882812 274.542969 243.597656 290.714844 243.597656 L 311.035156 243.597656 C 327.222656 243.597656 340.914062 254.859375 344.132812 270.550781 C 333.246094 282.023438 317.90625 289.226562 300.878906 289.226562 Z M 300.882812 289.230469 " fill-opacity="1" fill-rule="nonzero"/></g><path fill="#21fa90" d="M 300.878906 231.109375 C 285.515625 231.109375 273.011719 218.609375 273.011719 203.242188 C 273.011719 187.871094 285.515625 175.371094 300.878906 175.371094 C 316.242188 175.371094 328.746094 187.871094 328.746094 203.242188 C 328.746094 218.609375 316.242188 231.109375 300.878906 231.109375 Z M 300.878906 183.382812 C 289.929688 183.382812 281.027344 192.292969 281.027344 203.242188 C 281.027344 214.191406 289.929688 223.09375 300.878906 223.09375 C 311.828125 223.09375 320.730469 214.1875 320.730469 203.242188 C 320.730469 192.296875 311.828125 183.382812 300.878906 183.382812 Z M 300.878906 183.382812 " fill-opacity="1" fill-rule="nonzero"/><path fill="#21fa90" d="M 79.886719 91.765625 C 58.859375 91.765625 41.753906 108.875 41.753906 129.894531 C 41.753906 150.917969 58.863281 168.027344 79.886719 168.027344 C 100.910156 168.027344 118.015625 150.917969 118.015625 129.894531 C 118.015625 108.875 100.910156 91.765625 79.886719 91.765625 Z M 79.886719 99.78125 C 96.492188 99.78125 110 113.289062 110 129.894531 C 110 134.925781 108.746094 139.664062 106.554688 143.839844 C 102.386719 136.273438 94.386719 131.269531 85.324219 131.269531 L 74.4375 131.269531 C 65.476562 131.269531 57.429688 136.332031 53.242188 143.902344 C 51.03125 139.714844 49.765625 134.953125 49.765625 129.894531 C 49.765625 113.289062 63.273438 99.78125 79.882812 99.78125 Z M 58.789062 151.351562 C 60.65625 144.332031 67.101562 139.28125 74.4375 139.28125 L 85.324219 139.28125 C 92.757812 139.28125 99.101562 144.300781 100.980469 151.351562 C 95.542969 156.699219 88.097656 160.007812 79.886719 160.007812 C 71.675781 160.007812 64.226562 156.699219 58.789062 151.351562 Z M 58.789062 151.351562 " fill-opacity="1" fill-rule="nonzero"/><path fill="#21fa90" d="M 79.886719 129.121094 C 87.230469 129.121094 93.210938 123.148438 93.210938 115.796875 C 93.210938 108.449219 87.230469 102.476562 79.886719 102.476562 C 72.539062 102.476562 66.558594 108.453125 66.558594 115.796875 C 66.558594 123.144531 72.539062 129.121094 79.886719 129.121094 Z M 79.886719 110.492188 C 82.8125 110.492188 85.195312 112.871094 85.195312 115.796875 C 85.195312 118.722656 82.816406 121.109375 79.886719 121.109375 C 76.957031 121.109375 74.574219 118.722656 74.574219 115.796875 C 74.574219 112.871094 76.957031 110.492188 79.886719 110.492188 Z M 79.886719 110.492188 " fill-opacity="1" fill-rule="nonzero"/><path fill="#21fa90" d="M 173.90625 99.78125 L 127.285156 99.78125 C 125.074219 99.78125 123.277344 97.988281 123.277344 95.773438 C 123.277344 93.554688 125.074219 91.765625 127.285156 91.765625 L 173.90625 91.765625 C 176.117188 91.765625 177.914062 93.554688 177.914062 95.773438 C 177.914062 97.988281 176.117188 99.78125 173.90625 99.78125 Z M 173.90625 99.78125 " fill-opacity="1" fill-rule="nonzero"/><path fill="#21fa90" d="M 206.410156 113.625 L 127.285156 113.625 C 125.074219 113.625 123.277344 111.835938 123.277344 109.617188 C 123.277344 107.402344 125.074219 105.609375 127.285156 105.609375 L 206.410156 105.609375 C 208.621094 105.609375 210.417969 107.402344 210.417969 109.617188 C 210.417969 111.835938 208.621094 113.625 206.410156 113.625 Z M 206.410156 113.625 " fill-opacity="1" fill-rule="nonzero"/><path fill="#21fa90" d="M 173.90625 127.476562 L 127.285156 127.476562 C 125.074219 127.476562 123.277344 125.683594 123.277344 123.46875 C 123.277344 121.253906 125.074219 119.460938 127.285156 119.460938 L 173.90625 119.460938 C 176.117188 119.460938 177.914062 121.253906 177.914062 123.46875 C 177.914062 125.683594 176.117188 127.476562 173.90625 127.476562 Z M 173.90625 127.476562 " fill-opacity="1" fill-rule="nonzero"/><path fill="#21fa90" d="M 187.839844 141.324219 L 127.285156 141.324219 C 125.074219 141.324219 123.277344 139.535156 123.277344 137.316406 C 123.277344 135.101562 125.074219 133.3125 127.285156 133.3125 L 187.839844 133.3125 C 190.050781 133.3125 191.847656 135.101562 191.847656 137.316406 C 191.847656 139.535156 190.050781 141.324219 187.839844 141.324219 Z M 187.839844 141.324219 " fill-opacity="1" fill-rule="nonzero"/><path fill="#21fa90" d="M 173.90625 155.171875 L 127.285156 155.171875 C 125.074219 155.171875 123.277344 153.378906 123.277344 151.164062 C 123.277344 148.949219 125.074219 147.15625 127.285156 147.15625 L 173.90625 147.15625 C 176.117188 147.15625 177.914062 148.949219 177.914062 151.164062 C 177.914062 153.378906 176.117188 155.171875 173.90625 155.171875 Z M 173.90625 155.171875 " fill-opacity="1" fill-rule="nonzero"/><path fill="#21fa90" d="M 208.980469 169.023438 L 127.285156 169.023438 C 125.074219 169.023438 123.277344 167.230469 123.277344 165.015625 C 123.277344 162.796875 125.074219 161.007812 127.285156 161.007812 L 208.980469 161.007812 C 211.191406 161.007812 212.988281 162.796875 212.988281 165.015625 C 212.988281 167.230469 211.191406 169.023438 208.980469 169.023438 Z M 208.980469 169.023438 " fill-opacity="1" fill-rule="nonzero"/><path fill="#21fa90" d="M 199.433594 182.875 L 184.75 182.875 C 182.539062 182.875 180.742188 181.085938 180.742188 178.867188 C 180.742188 176.652344 182.539062 174.859375 184.75 174.859375 L 199.433594 174.859375 C 201.644531 174.859375 203.441406 176.652344 203.441406 178.867188 C 203.441406 181.085938 201.644531 182.875 199.433594 182.875 Z M 199.433594 182.875 " fill-opacity="1" fill-rule="nonzero"/><path fill="#21fa90" d="M 173.90625 182.875 L 127.285156 182.875 C 125.074219 182.875 123.277344 181.085938 123.277344 178.867188 C 123.277344 176.652344 125.074219 174.859375 127.285156 174.859375 L 173.90625 174.859375 C 176.117188 174.859375 177.914062 176.652344 177.914062 178.867188 C 177.914062 181.085938 176.117188 182.875 173.90625 182.875 Z M 173.90625 182.875 " fill-opacity="1" fill-rule="nonzero"/></svg>