<svg xmlns="http://www.w3.org/2000/svg" xmlns:xlink="http://www.w3.org/1999/xlink" width="500" zoomAndPan="magnify" viewBox="0 0 375 374.999991" height="500" preserveAspectRatio="xMidYMid meet" version="1.0"><path fill="#21fa90" d="M 47.390625 261.089844 C 50.601562 260.753906 53.949219 260.902344 57.179688 260.902344 L 85.289062 260.898438 C 100.550781 260.875 99.65625 263.367188 99.566406 278.535156 L 99.5625 328.765625 C 99.566406 336.269531 102.363281 348.546875 92.207031 349.558594 C 86.566406 350.101562 47.308594 350.703125 44.203125 348.671875 C 39.0625 345.3125 40.285156 338.734375 40.28125 333.464844 L 40.269531 285.757812 C 40.269531 277.414062 37.253906 263.089844 47.390625 261.089844 Z M 47.390625 261.089844 " fill-opacity="1" fill-rule="nonzero"/><path fill="#21fa90" d="M 317.097656 33.132812 C 321.464844 32.6875 327.753906 33.769531 326.855469 39.519531 C 326.382812 42.546875 309.230469 76.921875 306.875 81.140625 C 302.214844 89.476562 296.066406 79.894531 292.953125 75.699219 C 281.945312 84.636719 271.671875 94.546875 261.320312 104.222656 L 222.980469 139.445312 C 209.046875 152.1875 210.660156 148.363281 192.953125 144.566406 C 180.28125 141.847656 165.648438 138.597656 152.878906 136.714844 C 149.683594 139.183594 146.523438 142.074219 143.503906 144.773438 L 91.144531 192.078125 C 85.050781 197.558594 77.335938 207.714844 68.90625 206.601562 C 64.269531 205.316406 61.039062 200.578125 61.972656 195.773438 C 62.847656 191.289062 68.058594 187.804688 71.230469 184.914062 L 121.605469 139.332031 C 125.960938 135.453125 130.273438 131.53125 134.542969 127.5625 C 149.300781 113.832031 146.503906 116.289062 165.902344 119.945312 C 179.8125 122.566406 193.65625 125.460938 207.539062 128.246094 C 212.171875 124.242188 216.429688 119.707031 221.003906 115.597656 C 241.394531 97.277344 261.5625 78.636719 281.507812 59.832031 C 278.824219 57.039062 269.890625 46.15625 269.300781 42.757812 C 268.101562 35.871094 283.453125 36.496094 287.257812 36.113281 Z M 317.097656 33.132812 " fill-opacity="1" fill-rule="nonzero"/><path fill="#21fa90" d="M 124.238281 219.90625 C 135.328125 219.433594 158.8125 218.746094 169.558594 220.066406 C 178.546875 221.171875 176.179688 233.929688 176.179688 240.09375 L 176.203125 332.828125 C 176.210938 339.609375 177.722656 348.265625 168.703125 349.621094 C 165.515625 349.996094 162.1875 349.816406 158.972656 349.820312 L 131.421875 349.832031 C 115.574219 349.964844 117.324219 346.621094 117.335938 330.96875 L 117.425781 249.800781 C 117.449219 240.890625 113.535156 221.953125 124.238281 219.90625 Z M 124.238281 219.90625 " fill-opacity="1" fill-rule="nonzero"/><path fill="#21fa90" d="M 199.984375 182.921875 C 212.308594 182.445312 233.253906 181.839844 245.425781 182.929688 C 254.945312 183.785156 252.390625 196.550781 252.386719 202.964844 L 252.390625 304.785156 C 252.386719 316.835938 252.742188 328.980469 252.386719 341.019531 C 252.257812 345.402344 250.691406 348.296875 246.132812 349.386719 C 242.550781 349.945312 238.90625 349.816406 235.292969 349.820312 L 208.835938 349.84375 C 190.5 349.867188 193.726562 344.738281 193.722656 329.164062 L 193.722656 228.277344 C 193.71875 215.9375 193.394531 203.5 193.753906 191.164062 C 193.882812 186.78125 195.578125 184.113281 199.984375 182.921875 Z M 199.984375 182.921875 " fill-opacity="1" fill-rule="nonzero"/><path fill="#21fa90" d="M 276.824219 114.128906 C 279 113.789062 281.460938 113.988281 283.667969 113.988281 L 315.644531 113.984375 C 330.785156 113.972656 334.097656 112.089844 334.082031 128.828125 L 334.066406 324.113281 C 334.074219 333.367188 337.492188 348.144531 325.898438 349.777344 C 316.289062 350.058594 306.605469 349.816406 296.992188 349.816406 C 290.039062 349.816406 272.679688 352.554688 270.246094 344.027344 C 269.511719 341.457031 269.957031 330.269531 269.960938 326.789062 L 269.96875 139.148438 C 269.964844 130.800781 266.90625 116.523438 276.824219 114.128906 Z M 276.824219 114.128906 " fill-opacity="1" fill-rule="nonzero"/></svg>